/* XPM */
static char *_6ad760b9d334ea1d6e398360e24d7c2[] = {
/* columns rows colors chars-per-pixel */
"32 32 66 1 ",
"  c #494948",
". c #515151",
"X c #5F5F5F",
"o c gray45",
"O c #79797A",
"+ c gray49",
"@ c #807F7F",
"# c #808080",
"$ c #838383",
"% c gray52",
"& c #878788",
"* c #8B8B8B",
"= c #8C8C8B",
"- c #8D8D8D",
"; c #939393",
": c gray59",
"> c #989898",
", c #9B9B9C",
"< c #9D9D9C",
"1 c #9F9F9F",
"2 c gray63",
"3 c #A6A6A7",
"4 c gray67",
"5 c gray68",
"6 c #B4B4B4",
"7 c #B7B7B7",
"8 c #B8B8B7",
"9 c #BBBBBB",
"0 c #BCBCBC",
"q c #C1C1C1",
"w c #C3C3C4",
"e c gray77",
"r c #C8C8C7",
"t c #C8C8C8",
"y c gray80",
"u c #CDCDCC",
"i c gray81",
"p c #CFCFD0",
"a c #D0D0D0",
"s c #D5D5D4",
"d c #D8D8D8",
"f c #DFDFDF",
"g c #E0E0DF",
"h c gray88",
"j c #E4E4E4",
"k c #E7E7E7",
"l c gray91",
"z c #EBEBEA",
"x c #ECECEB",
"c c #ECECEC",
"v c gray93",
"b c #F0F0EE",
"n c gray94",
"m c gray95",
"M c #F4F4F3",
"N c #F7F7F5",
"B c #F8F7F7",
"V c #F8F8F6",
"C c #F7F7F8",
"Z c #F8F8F8",
"A c #F8F8F9",
"S c #FBFBFA",
"D c #FCFBFB",
"F c #FCFCFB",
"G c #FBFBFC",
"H c gray100",
/* pixels */
"HHHHHHHHHHHHHHHHHHHHHHHHHHHHHHHH",
"HHHHHHHHHHHHHHHHHHHHHHHHHHHHHHHH",
"H52:>::>;>:>::>>%vHa::::::>::17H",
"HdiHHHHHHHHHHHHH1HH#HHHHHHHHHz7H",
"HH%HmHHGMHHvBZvH+HtsHHHHHHHHH#HH",
"Hjf9HHvHHHHHHHH=HH#HZHHHHHHHH*HH",
"HZH%HHHq=;;;;;;:HrpZHm%;=;;;.HHH",
"HZFj7HH7mHHHHZHHH#HZH&HHHHHHHHHH",
"HZFZoHFH%HvhNZmmiiFHf9H>>14ZHHHH",
"HHHNm1NH4jbHvNdH+HNH%H2xHHh5HHHH",
"HHZZH+HzH@ZvNbvieHZh0H#HjH%HHHHH",
"HHHHzH>HH2bMNmH%HzH*H>HvHe8HHHHH",
"HHZHVm%HvH#HvZeeZHf9H%HVH%HHHHHH",
"HHHZZMH=HV1NsH%HmH&H+HmHqdZHHHHH",
"HHZHZhZ*HMH+HsqmZh7H+HHH*NZZHHHH",
"HZHGHHNH;HH1H%HZH*H%HmH5vZmHHHHH",
"HHZHGZMH*HVH sZZf0H;HVH+mZHjHHHH",
"HNZHZHNZN=HHjHZH%H%HZH,HHZZZHHHH",
"HCZHNHZZH#HZHCFh9Z1HHH%HZHjZHHHH",
"ZHHZHHVHfH#HZNH*H+HzH=HZjHHxHHHH",
"HFHHNZZFNH#HNZh5z4ZHH+HHHHZCHHHH",
"HZHZHZZHvzH#HH+H%HHH#HjvbHZVHHHH",
"HZHHCHNNNmN*HfeaqmVH:HHGVjZDHHHH",
"HZZZCmNmHzZH:=H+HmH%HVNGVvHjHHHH",
"HHZHmVZbHZbH3ittHNZ1HHjHNNHZHHHH",
"HHHZZNCNHVZvHH*HZH+HZZVHmNZZHHHH",
"HHHNZZNNHZZCMH=HHz5HHZZZZZZZHHHH",
"HHHZZZZZZHmNVVqwH%HHZHFHjHZhHHHH",
"HHHGZHNZHZZFNNH+j0HZHHHZHHZHHHHH",
"HHHHHHHHHHHHHHZHXHHHHHHHZHHVHHHH",
"HHHHHHHHHHHHHHHHHHHHHHHHHHHHHHHH",
"HHHHHHHHHHHHHHHHHHHHHHHHHHHHHHHH"
};
