/* XPM */
static char *_170e6f155ff435ce2b5710395a3fc77[] = {
/* columns rows colors chars-per-pixel */
"128 128 71 1 ",
"  c #000000",
". c #0C0C0C",
"X c #141413",
"o c #1C1C1C",
"O c #201F20",
"+ c #252524",
"@ c #282827",
"# c #2C2C2C",
"$ c #30302F",
"% c #343434",
"& c #383837",
"* c #3C3C3C",
"= c #434342",
"- c #4B4B4B",
"; c #50504F",
": c #545454",
"> c #595957",
", c #5B5B5B",
"< c #60605F",
"1 c #5F5F60",
"2 c #636363",
"3 c #6A6A67",
"4 c #6B6B6B",
"5 c #737373",
"6 c #797976",
"7 c #777779",
"8 c #7B7B7B",
"9 c #848485",
"0 c #888887",
"q c #8D8D8D",
"w c #90908F",
"e c #939393",
"r c #999997",
"t c #9C9C9C",
"y c #A1A19F",
"u c #9F9FA0",
"i c #A4A4A4",
"p c #A7A8A7",
"a c #A8A8A7",
"s c #ABABAB",
"d c #B0B0AF",
"f c #AFAFB0",
"g c #B4B4B4",
"h c #B7B7B8",
"j c #BBBBBB",
"k c #C1C1BF",
"l c #C4C4C3",
"z c #C9C9C7",
"x c #CCCCCC",
"c c #D1D1CF",
"v c #D3D3D3",
"b c #D7D8D7",
"n c #D9D9D6",
"m c #D7D7D8",
"M c #DBDBDB",
"N c #E0E0DE",
"B c #DFDFE0",
"V c #E4E4E4",
"C c #E8E7E7",
"Z c #E8E8E7",
"A c #EDEDEC",
"S c #F0EFEF",
"D c #EFF0EE",
"F c #F0F0EF",
"G c #EFEFF0",
"H c #F5F5F4",
"J c #F8F7F7",
"K c #F7F8F6",
"L c #F8F8F7",
"P c #F7F7F8",
"I c #FEFEFE",
/* pixels */
"IIIIIIIIIIIIIIIIIIIIIIIIIIIIIIIIIIIIIIIIIIIIIIIIIIIIIIIIIIIIIIIIIIIIIIIIIIIIIIIIIIIIIIIIIIIIIIIIIIIIIIIIIIIIIIIIIIIIIIIIIIIIIIII",
"IIIIIIIIIIIIIIIIIIIIIIIIIIIIIIIIIIIIIIIIIIIIIIIIIIIIIIIIIIIIIIIIIIIIIIIIIIIIIIIIIIIIIIIIIIIIIIIIIIIIIIIIIIIIIIIIIIIIIIIIIIIIIIII",
"IIIIIIIIIIIIIIIIIIIIIIIIIIIIIIIIIIIIIIIIIIIIIIIIIIIIIIIIIIIIIIIIIIIIIIIIIIIIIIIIIIIIIIIIIIIIIIIIIIIIIIIIIIIIIIIIIIIIIIIIIIIIIIII",
"IIIIIIIIIIIIIIIIIIIIIIIIIIIIIIIIIIIIIIIIIIIIIIIIIIIIIIIIIIIIIIIIIIIIIIIIIIIIIIIIIIIIIIIIIIIIIIIIIIIIIIIIIIIIIIIIIIIIIIIIIIIIIIII",
"IIIIIIIIIIIIIIIIIIIIIIIIIIIIIIIIIIIIIIIIIIIIIIIIIIIIIIIIIILIIIIIIIIIIIIIIIIIIIIIIIIIIIIIIIIIIIIIIIIIIIIIIIIIIIIIIIIIIIIIIIIIIIII",
"IIIIIIIIIIIIIIIIIIIIIIIIIIIIIIIIIIIIIIIIIIIIIIIIIIIIIIIIIIIIIIIIIIIIIIIIIIIIIIIIIIIIIIIIIIIIIIIIIIIIIIIIIIIIIIIIIIIIIIIIIIIIIIII",
"IIIIIIIIIIIIIIIIIIIIIIIIIIIIIIIIIIIIIIIIIIIIIIIIIIIIIIIIIIIIIIIIIIIIIIIIIIIIIIIIIIIIIIIIIIIIIIIIIIIIIIIIIIIIIIIIIIIIIIIIIIIIIIII",
"IIIIIIIIIIIIIIIIIIIIIIIIIIIIIIIIIIIIIIIIIIIIIIIIIIIIIIIIIIIIIIIIIIIIIIIIIIIIIIIIIIIIIIIIIIIIIIIIIIIIIIIIIIIIIIIIIIIIIIIIIIIIIIII",
"IIIIIIIIIIIIIIIIIIIIIIIIIIIIIIIIIIIIIIIIIIIIIIIIIIIIIIIIIIIIILIIIIIIIIIIIIIIIIIIIIIIIIIIIIIIIIIIIIIIIIIIIIIIIIIIIIIIIIIIIIIIIIII",
"IIIIIIIIIIIIIIIIIIIIIIIIIIIIIIIIIiHIIIIIIIIIIIIIIIIIIIIIIIIIIIIIIIIIIIIIIIIIIIIIIIIIIIIIIIIIIIIIIIIIIIIIIIIIIIIIIIIIIIIIIIIIIIII",
"IIIIII                                                              ,IIIIIIIIII.                                          MIIIII",
"IIIIII%eIHHHHHHHHHHHHHHHHHHHHHHHPHHHHPHHHHHHHHHHHHHHHHHHHHPLHPHHHHI&tIIIIIIIIIuoIHHHHHHHHHHHHHHHHHHHHHHHHHHHHHHHHHHHHHHLI IIIIII",
"IIIIIII IIIIIIIIIIIIIIIIIIIIIIIIIIIIILIIIIIIIIIIIIIIIIIIIILLIIIIIII IILIIIIVII AIIIIIIIIIIIIIIIIIIIIIIIIIIIIIIIIIIIIIIII45IIIIII",
"IIIIIII*9IIIIIIIIIIIIIIIIIIIIIILILIIIIHIIIIIIIIVHIIIIIIIIILHLLIIII>5IIIIIIIIIi+IIIIIIIIIIIIIIIIIIIIIIIIIIIIIIIIIIIIIIIII IIIIIII",
"IIIIIIII IIIIIIIIIIIIIIIIIIIIIIHILIIIIIHIIIIIIIIHIIIIIIIIIILPIHIII IIIIIIIIII CIIIIIIIIIIIIIIIIIIIIIIIIIIIIIIIIIIIIIIIIq*IIIIIII",
"IIIIIIII-8IIIIIIIIIIIIIIIIIIIIIIILIIIIIILLIIIIILIIIIIIIIIIIHIHILI0-IIIIIIIIIt+IIIIIIIIIIIIIIIIIIIIIIIIIIIIIIIIIIIIIIIII HIIIIIII",
"IIIIIIIII IIIIIIIIIIIIIIIIIIIIHIIHLIIIIIIIHIIIIIILIIIIIIILLHLHHII FIIIIIIIII VHIIIIIIIIIIIIIIIIIIIIIIIIIIIIIIIIIIIIIIIj.IIIIIIII",
"IIIIIIIII:5IIIIvhIIIIIIIIIIIIIIIIFHIIIIIIIIHIILILILIIIvIILLLHLHIhXIFIIIILIHa@IILIIIIIIIIIIIIIIIIIIIIIIIIIIIIIIIIIIIIII.lIIIIIIII",
"IIIIIIIIII IIIIIILLIIIIIIIIIILIILHIHIIIIIIIIHIIIIILIHHLIiVIIHILI zIIHLIIIII MIIIIIIILIIIIIIIIIIIIIIIIIIIIIIIIIIIIIIIIV IIIIIIIII",
"IIIIIIIIII>2IIIILIIHIIIIIIIIILIIHHIIHLIIIIIIIsMLPLIvIIIILIIIHLIV IIHHHHIIIsoIIIILIILIIIIIIIIIIIIIIIIIIIIIIIIIIIIIIIII*eIIIIIIIII",
"IIIIIIIIIII IIIILIIILLIIIIIIHIIIHHIIILHIIIIILLIPPIIPIIIIHIHLLII&eILLLHIHII MIHLIIIIIIIIZIIIIIIIIIIIIIIIIIIIIIIIIIIIII IIIIIIIIII",
"IIIIIIIIIII2,IIILIIIIILHIIIILIIHILIIIIIHIIIHIHIHHILIIILIALLLIII ILIIIPLLIsoIHLLIIHPIIIIIIIIIIIIIIIIIIIIIIIIIIIIIIIII4,IIIIIIIIII",
"IIIIeILIIIII IIIIIIIIIIIPHIIIIILIHIIIIIIHIHIHVIAHLIIIIIHHIIHHI44ILIILIILI MIHLIHLIIIIIIIIIIIIIIIIIIIIIIIIIIIIIIIIIII IIIIIIIIIII",
"IIIIsVLHHHHI5;IxmIIIIIIIIIzlIIHILLIIIIIIIAIILIIVALLIIIIHHILIII PHIHIHIIIhXILLLHIHHIIIIIIIILIIIIIIIIIIIIIIIIIIIIIIIIe=IIIIIIIIIII",
"IIIIIHVHIIIII IHVIIIIIIIIIIHIIHIHIIIIIIIHILHILLHGIHIIIHIHIHIIq=IHHPHHLLI MIHHPFHIIHLIIIIIIIIIIIIIIIIIIIIIIIIIIIIIII VIIIIIIIIIII",
"IIIIIILGAIIII9=IHFIIIIIIIIILILIIIIIIIIIIIIIIIIIIGIIIIIIMIIIII GIIIHHIIIj.IALLHLLLLIIVIIIIIIIIIIIIIIIIIIIIIIIIIIIIIjXIIIIIIIIIIII",
"IIIIIIHILZHIII IHIHPIIIIIILIIM,::;:::::::::::;:>:;:;;:;,:;::=oIIIHIIIII MILLLHPHHHHPIHIh-::::::::::::::::::::::::2 jIIIIIIIIIIII",
"IIIIIIIAIIAHII0*IILIHLIIIIIIPH gqqeqe0qwqewwwqqqqqeqqwqwwwqq9AIHHIIIIIj ILIIIHHPHIIIHLI uqqqqqeqqeqqwwqwqqeqqeqqq0tIIIIIIIIIIIII",
"IIIIIIILHIIHHHI IIIHIIHIIILIHI-eIIIIIIIIIVIIIIIIIIHIIIIIHLIIILLFIIIIII MILIHLHILAHIPHI5,IIIIIIIIIIIIIIIIIIIIIIIIIIIIIIIIIIIIIIII",
"IIIIHIIIHIIIHHIe$IIIHIILHIIHIII IIHLIIIIIZLHHHIAIsIZIILDHHLIIIIPHIIIIj.IIHHLPIIIIFHLII IILIIIIIIIILAIIIIIIIIIIIIIIIIIIIIIIIIIIII",
"IIIIFHLHPZLHLHAI HIIIHIIILFLIII&wILIIIIIIAHIALHHAIHHMxLLHHLLIIHLIHIII zICHHIHLIIHHLLI7:ICHHLIIIIIIIHIIIIIIIIIIIIIIIIIIIIIIIIIIII",
"IIIIIHHIIPIIIIIHt@IIIILIIIHHIIII IIIIIIIZIVIALILHLHIZIIAHAHLHHLZIHIIh.IIHHIHHLHHHIILI IILILHPIIIIIIIIILIIIIIIIIIIIIIIIIIIIIIIIII",
"IIIIILIFLIAIIIIII ZIIILIIIHHIIIs%qIIIIIGHIVACHIiILHIHHIHHHcMPHLILLVI xIHIHHHHHHLHHHI4,IHLILIHAIVLHIIIIIILIIIIIIIIIIIIIIIIIIIIIII",
"IIIIIIHIHHIHIIIII8OIILIHIIHIHIHIH IHHHAAHIIIILIIAAIHIAHLHHIAFHIpIHIj.ILIIHLLPHIILHII IHHHHHMIIHIIHILLILIIIIIIIIIIIIIIIIIIIIIIIII",
"IIIIIIILILHFIIHHHI eBILIHIHILHIII%rIIHLIHLHj9IIIALHHLIVIHHHHHIHLHII lILIIHLLHLHLILI4>IILLHIIIIIIIIIIIIIIIIIIIIIIIIIIIIIIIIIIIIII",
"IIIIIIIHIILI>GIILIfoIHLHLIILLHIIIA IHIhPIVGCAHZHIAHSHLHLHAIHLzIHPLz IHLLIHLHIIIIHPI ILHIILII*          ..o+$*VIIIIIIIIIIIIIIIIII",
"IIIIIIIIHIIIVALIIII zIIILZjIHPILLI@uIHAHZZHIHIHHAVILIAIVIAHHPcCLII jIPILHHLILLHHHI4>IIIIIPIc IIIIIIIIHHVVMxv;2IIIIIIIIIIIIIIIIII",
"IIIIIIIIILIIIVHLLLIh.IPIIIvIIIHIIIV IHZGIAIiIHILIItFAHGLjhPLZPHHIz IHLHIHFLHHIIILI IIIIILVI.gIIIIIILZIIIIIII IIIIIIIIIIIIIIIIIII",
"IIIIIIIIIHIIILAHIHII zILLIHIIILHLHI@iIHCHHAIHHIHPHIPHZALVILLILIZI zZZIIHLHLHHIIHI4,IHIIHHIz IIIIIIHIIHIIIII=4IIIIIIIIIIIIIIIIIII",
"IIIIIIIIIIHIIIHHLHLIj IIILPLIIHAHIIM IMIZHHHHVIHLILIHLIAl9ILHaIIc IAHPVVIHHIHHHHI IILHPPLI zILLLIHIIIILHIIL IIIIIIIIIIIIIIIIIIII",
"IIIIIIIIIIILIILIAHPII zIIIHLIIHHAHHI+dIAjIILLIzSIIAHDVZHAMLAAIHI zIHLLILIAIHIHHI42IHLLILIfXIHHZHHHHHLLHIHI=0IIIIIIIIIIIIIIIIIIII",
"IIIIIIIIIIIHIIIZIAIHIx IHIHHIHHIJIIIM IAVHHFAHBSVAHLILMIclILALIv IIILIGIIAHIHHII ILLHIHII VLILLIIIHILLHHLH IIIIIIIIIIIIIIIIIIIII",
"IIIIIIIIIIIIHHLLILHLHI.jIAHIeILHHHIHIXyHGHVAHLHIIPHHHALLAAIAZHI zIHILHPIIHHIIHI5,IILIHLIe@IILILHLIfMIIIII@tIIIIIIIIIIIIIIIIIIIII",
"IIIIIIIIIIAIHLIIHIHLILm IHHHALLHLHHLIz IHHHHHIHVLHHZAHIMLHHZLHz IHAIIHIIIHPHIHI IILLLIII HIIHIIIHHIHIILLC IHIIIIIIIIIIIIIIIIIIII",
"IIIIIIIIIILIIHLIHIIHIIIXsIALIHIIILHHZI.yILAHCHHHIAAIHIHVHHVHHI kIIHHLLPIILIHzI5,IILLLII9*IIIIIHPIIIHHAII.sIHIIIIIIIIIIIIIIIIIIII",
"IIIIIIIIIIIIIPHIIHIIAIIC IHHILLIPPHLxIb IHHHPHHAGHLDLKCLZHVHLx IFHIVVLILIzIHII IHIHHLLI IHHHaLIIIIIIHILM IIGIIIIIIIIIIIIIIIIIIII",
"IIIIIIIIIIIIIIHHIMvIIAIIoaILIIHHVLHHHAI.lHHHDHAPCLHLIIHHALsIIXjIILFHHIfMHLHHI5:ILAAHHI7;IIHLVHIIIIIILHI jIHAIIIIIIIIIIIIIIIIIIII",
"IIIIIIIIIIIIIIHILMfLHILIA ILAHHHPHHIHHAx IALHVHHAIHIAAVHFALLc ILHLLHHHHLHHHII IHDIHIII ILLHIIHHIIIIIILl.tCHHIIIIIIIIIIIIIIIIIIII",
"IIIIIIIIIIIIIIILLIHLIHxqI@tIIIHHLxLAHHMI jIMLLHSZtIHLHHIAZLIofIIzLLHILALHAHI4>IIPAIII>2IHILLILHLGPILHI MILPHIIIIIIIIIIIIIIIIIIII",
"IIIIIIIIIIIIIIIPIHIALHIMLF IHHLHHIIHLDVHx ILZJLLIHHIIZLIzHIz IIHIHLIIHIIALHI IIIIIaLI IHIIIHILLIIPHLIioIAILHLIIIIIIIIIIIIIIIIIII",
"IIIIIIIIILHLLLLLHLHVALHLLI$eIHHHHHHHPLLZI zIHHPHLHPAHHIAzHIoaIHHLIHIIHIHMLI2:IIIIHII=8IHIIILIICIHHCtI VLLHIHIIIIIIIIIIIIIIIIIIII",
"IIIIIIIIIIHHIIIIHIIAPIIINIF IHILALZLHLrLIl.IHIAZIHbLVHHPLLn IHZLLLLLHPIIIII IHAHHIIZ ILIIIILHLDFLIIIt%IZIAIHPIIIIIIIIIIIIIIIIIII",
"IIIIIIIIIILIHIIIIHIIAHIJLHI*0IVLFHAHHLVLAI xIHIFVIzLHLPLAIXsIHLIIIVZHHHLLI2>IAMMkLI&eIHLHIIIHHHIIIII HIAIAILHIIIIIIIIIIIIIIIIIII",
"IIIIIIIIILIIIHIIIHIIAIHHIFLI IjnHILHAHILHIh.IHHHHAHVIHHIHM IHIIIIIZPILHHII IHHIehVb IHAHHHvLHLHIIII8=IAFIHILHIIIIIIIIIIIIIIIIIII",
"IIIIIIIIIHIIIIHLIHHHIHAIHHII=8IIHHHHDHAHHLI cLHZCAHHlIHHIosIHIIILHIIIHHHI42ILLANAIOiIHIIIHHILLHPIII ILPIVHILHIIIIIIIIIIIIIIIIIII",
"IIIIIIIIIHIIIIILHIHILZLVILIAI IVHHHHHHAHLGIsoIILLFl<IZLIV ILILLHHIPIHIHII IIIAIHAM ILHLHAPLIIHIHLI4>ILFLALILHIIIIIIIIIIIIIIIIIII",
"IIIIIIILILIIIIIIIHIHIAHHHHHFI>4IHHPHIHHHLHHI vHAHZHIIHLIXaIAHBPLHIILLILI22IIAHIHI jAZPHHPIILIAHLII IHALIHAIIHIIIIIIIIIIIIIIIIIII",
"IIIIIIIILIIIIIIIIIHHHLLIMHVIII ILIFAIIHHLIHLaXIICHHHILLF ILLCjIHIHIILILI ILAHILIx IAHPIIIILHLLHII-6IICILIZIIFIIIIIIIIIIIIIIIIIII",
"IIIIIIIILIIIIIIIIIHHHI7lIAHLII22ILHAIIHAPLHLI VHLZLLHPIoiIHALIHIILLIPHI42IAFHLII xILHHLIIIIILLHLI IHH2IHIHHIHIIIIIIIIIIIIIIIIIII",
"IIIIIIIIHIIIIIIIILLHHHLAAZVHFII IHLHZFAHPLIIIioIFIHLLIZ IHHILLHHLlILHLI IAHIHZIf IHLIHLHHHLLIILI&0ILIIHLILZIAIIIIIIIIIIIIIIIIIII",
"IIIIIIIIHIIIIIIIHIILHLILHHHIHZI32IHAILHILLLHAI AAHHHHI@iHbIHHHIIIIHAII5,IIHHLzI CLDHHzHHLHIIIIIL IIIHIIVILHIHIIIIIIIIIIIIIIIIIII",
"IIIIIIIILIIIIIIHIILIPIHLHLHHIHAI ILHHIZILLIPIIt+ILLHIV IPILIHIIILLHILI IIIFLIIioILHLIIILLHHIIIIotIIIZIHIALLHHIIIIIIIIIIIIIIIIIII",
"IIIIILPLIILIIIHLIIHLIHIHJFIVAIII4:IHHLLALHLIIHI FLHAI@iIHIIIAHIPLIHLI5:IIHIHII LLHHILLHHHLIIIIV IHIIAIHIPAHLHHIIIIIIIIIIIIIIIIII",
"IIIIIIHHIIIIIHIIIILIIHILHZPIVHLHI IIHLHIVLIIIHIt@IVIZ IHHLLHIHAIIILHI IIHLIHIq&ILIHAIPLIIIMHLI.hIHIPLILIIHGIAHIIIIIIIIIIIIIIIIII",
"IIIIIIIHIIIIHIIIIILIILLIHIAHIZPII8=IHLHHLLPILAHI ZII$iIIIHHHHHIDIIII21ILHHILI ILLHIAHLLPLIjAIz IHLHPIHIIIHHLAIIIIIIIIIIIIIIIIIII",
"IIIIIIIPIIIHIIIIIIHIIIHHLLALIPLZHI LIHHILLZPLHHLe%IV IHHHIHFLIIIFIjI IHLAHAI5;IHIHIIHIIIIIIII xILILHLHIIIIHIA9IIIIIIIIIIIIIIIIII",
"IIIIIIILILHIIIIIIILIIIHHLHIALIHLAIq=zmHAHLILAHHLI I&tIIIHHHHFIILLHN42IIIILII IILIIIIHHIIIIIIs.IIAIfxLAAHHHZHIzIIIIIIIIIIIIIIIIII",
"IIIIIIHIIHIIIIIIIIHIIIIHPLHPGLIAIVI ZIPLIIIZiILPIe@ IIIHHHHHFLHHILI LIHAHLI,,IHHLHHLHHHIIHII MIILIMBIIIHIIHHIHIIIIIIIIIIIIIIIIII",
"IIIIIIHIHIIIIIIIIILIIIIHLHHLALHAHHIq&IHLIIIHILHLHI iIIHILHHKIHIILI22vLIAHHI ILPIIIHIILIHILIi@IIIILIIAIIIHIHHIAIIIIIIIIIIIIIIIIII",
"IIIIIIHLIIILILLLHHHLHPLHLLLHLHLIVHLI AIHIIAIILLLHHLILLIHIIKHIHIIII IIHHIII-7IMHIIIILILIIAII VIIIIHIIAIIIIHLHIHIIIIIIIIIIIIIIIIII",
"IIIIIHHHLLLILIIIIIIIIIIIIHHLHAIILVHIt@IHHHHLHHHLHHHPILLIILHLLLHII4,IIHVIII IIAHHLIIHIIPIIIq&IIIIILILLHIIIIHHLHIIIIIIIIIIIIIIIIII",
"IIIIIHHPIHLIIIIIILIIIIIIHIPIIHGII1nHI VLIAIIIHHILHILHLIIIHIHIICHI IHHILFI&wIILLIILLHILHHHI LIIIIIILLIIHIIILAHHIIIIIIIIIIIIIIIIII",
"IIIIILLILIIHHIIIIHIIIILILIHILLHHLIIHIioIaIHLLLLHHIIHLLHILIIHIIAI42IAIHHIA IHHHHHLLLIFLPVI5;ILHHIIIHLIIHIIILLHHIIIIIIIIIIIIIIIIII",
"IIIIHIHIHIIIILHHILIIIIIIIHIHLILAHIPLHI VVIILLHHILIHLHIIIHHLHIIII IHFHLIM iIILLHIIIIIPIAjI IIIIILHLHLLLLAIHHHFHLIIIIIIIIIIIIIIIII",
"IIIILIHIIHIIIIIIHHHIIIIIIHILLIIHAHPLHIh.IHLHHHIILLILPIIIIILPHLI4<IHAHFAV ILIHHLIIIILHLII,2IIIIIIIIHHIIIIVIIHPHIIIIIIIIIIIIIIIIII",
"IIIHIIHIIIHIIIIIAHILHHIIILIHHIIHHLAVHII BILLIHILHIIHLLIHIIILLII ILHAAHI jILIIHLIIILIIHII ILHIIIIIIIILIIH2IIHHLIIIIIIIIIIIIIIIIII",
"IIIHIILIIIIHIIIIIHIIIILHLILLILIIJALZHIIl ILHILIHAIILILILIIILII52IAHHLHx IHHALHLIHIIIILI-7IIIHHIIIIIIAHHIIHIHAIIIIIIIIIIIIIIIIIII",
"IILLIILIIIIIHIIIIHIIIIIIILHHIHIILHALHJII cLIHHLLHIILIPLIIILHLI HLHHAAI vIIIIVbSHIIIIIII IIIIIIHIIIHHIHIIHIHIALIIIIIIIIIIIIIIIIII",
"IIHIIILIIIIIIHIIILIIIIIIHLLLHIHIILnVILHIx IHLHHHHLLLLHPIHLPLI5,IHHHVIh.IIIIIVmIIHHHLLI%9IHHHHHLA:IIIILIIIHIAIIIIIIIIIIIIIIIIIIII",
"IIIIIILIIIIIILLILIIIIIHLIIILIPHIIIhgIHHFI lIHIILLILIIHHvIILLI IALHHHI bILIIIIILPIIIHPH IIIIIIIIIAIIIIIHIIHII8HIIIIIIIIIIIIIIIIII",
"IHIIIILIIIIIIIPLLIIIHLIIIILIIIIHLLIIIIIIPz IHIIIHIHIHHIHHIHI4>IIHHIIi@IPHLILIHIIHIIII+iHIIIIIIIIHHIIIIILIHIIzIIIIIIIIIIIIIIIIIII",
"ILIIIILIIIIIIIIPHILLIIIIIIILIIIJJHILIILHLI.fIHIsIIHLHILIPHLI IIqLVLI jHFIILIIHIIIHIIb IALHIIIIIIHHIIIIIHIHILHIIIIIIIIIIIIIIIIIII",
"HIIIIILIIIIIIIIIHHLPHHLHLHHHPPLHFLFVLLIIIIb IHAIHLHHIGLIIII4>ItILLI0&IHHIjHIIHIIIIHI.jIHPIHLIIILIHIIIIILHLLIAIIIIIIIIIIIIIIIIIII",
"LIIIIIILIIIIIIILLLLIIIIIIIIHILHIIHHHHILHLHIosLAHHIHIIzIIIII IHAHIHI LHILIIIHILIIHHIj IILLIIIHIILIIHIILLLHLHIAIIIIIIIIIIIIIIIIIII",
"IIIIIIILIIIIIIIHIIHFIIIIIIIHIIIHHLHHHLLHHLIM IIHAHLIHILIII4>IHFHAI5-IILILIIIHPPLIII zLILPIIIIHLGIIHHLIIILLAIZIIIIIIIIIIIIIIIIIII",
"IIIIIIILIIIIIIHIIILIHLILLIHHHHIPIIHPHAHIIHAI#iILHILPIIIIII IIVAHII IHLPLLIIIHHLLHIsXILAHILLLHHI5vLHIIIIIIIHIAIIIIIIIIIIIIIIIIIII",
"IIIIIIILIIIIIILIIILIIHLIIIHHIIIIIHFAIIIAAHAIA IILIHIIIIHI,2IfLIHI22IIPHLIIIIHIHIII MIIIA5IHHIIIINIIHIIIIILLHAIIIIIIIIIIIIIIIIIII",
"IIIIIIIHIIIIIHIIIIIIIHPHIIIHLLCIHaHHHVrLZFPIz$tIPMHILHHIj ILnHHHI IHIHLPIIIHIIIHIt$IHHHLvIIIIIHIZZIHIIIIIHILZIIIIIIIIIIIIIIIIIII",
"IIIIIIIHIIIIHIIIILIIIHILHLIHSIIHIILAAHIHVIIHIH IHVLHLLHI42IAHHII=7IHLLHIIIILIIIII HIIIIAPIIIIIHIHAHIHIIIILIHHIIIIIIIIIIIIIIIIIII",
"IIIIIIIALIIIHIIIIIILIILILHPPIILHLHHHIHZDLLPIHI&0ILHPLLLI IIHLCAI ILHjHHPHHHILLLI9*IIIIHIHIIIIAIIHLPHLIIIILIHHIIIIIIIIIIIIIIIIIII",
"IIIIIIILIIIHIIIIIIIIIIIPIILHHHAHHHLHIHHItLHHAHL IHHLIHI42IHILHI&0IHHIAIILALIIIII IIHIIHIHIIIHIILHIAIMVIIIIHIZIIIIIIIIIIIIIIIIIII",
"IIIIIIIHIILIIIIIVLIILIIIILHHHPLLLIHIiIIHHAHICHI=9IIIHII ILHILHt ILHAzIHLHLIIIII5>IIIIZIIAIIIHIIPIHLLjjIIIIHIZIIIIIIIIIIIIIIIIIII",
"IIIIIIIHIIHIIIIIIIHHHHHHZLIHHPLHILIINHLHIPLCLHLI ILHHI5>IFHAHI+yIHHAvIIHHIIIIII IIIILLHIAIIHIILHLPLPIIIIIIHIFIIIIIIIIIIIIIIIIIII",
"LHIIIIIPIHIIIIIILHHHHILILHHVIHHZILIHIALFIZAIIHII->IHHI IHVHIIv IIIIHHHLLILIIII,4IIIIHIILZILALLIHPHILHH,IHHHItLIIIIIIIIIIIIIIIIII",
"IILHLIIHLIIIIIHHJIHILHLHIIHLHHHALHHLHLAHALHIHHILI III5=VLHHHI.jILLILIFHAIILIII IIIIHILHLAIHIIIHIHZIHILHIIIIIaIIIIIIIIIIIIIIIIIII",
"IIIIIHLLHIHHHLIIIHIIIHHVLHLHVPHIHILHHIFtIIPHHLLLI:7II IIAIHIl ILFLLIHHHHILIVI-7IILHALIIHAIHIIILILHGIIAIHIIILLIIIIIIIIIIIIIIIIIII",
"IIIIIIIHHIIIIIIIIPIMLHHIALIIHHHHIIIILHLLAILHLPIHHI I4>IIZIHI zIIIILHHIHIIIIHH IHLIHIIILIHHIIIHIIHIHHJHHHIIILHIIIIIIIIIIIIIIIIIII",
"IIIIIIIILIIILIILLLHILILHLPZHHZHHIIIIILHHHZIHIHHHLI22 ILLIGIfXIIHHHLIHHLIILAI&eIIILLIIIHIhHIIILIIHIAIHHHIHIILHLIIIIIIIIIIIIIIIIII",
"IIIIIIIILIIHPIIIHHILLLLHIIIPHIVLIIIIHHIIAHAIGAIALHI 2ILLILI bIHHILHLHLHHLHIV IIIIHIIIHIIiZIIHIIIILHIHAIHHIILHHIIIIIIIIIIIIIIIIII",
"IIIIIIIIIHIIILIIFHHIHIAPHHIHLLAJIIIIHHIIAHLAHHHIAHIfIILIIIuOIPHLHLLHHIIAIIIoaIIIHIIIIIHLIHILLIIIILLPLHILLHIIHHIIIIIIIIIIIIIIIIII",
"IIIIIIIIIHIIIIINIHIHHIVIPAHHLHHHIIIIIHIALHLLHPHHIHLLLHHHHI CIHIHIIHHHILIHIv IIILHIIIHHIIHIHHIIIIIHILAIHLHHIIHHIIIIIIIIIIIIIIIIII",
"IIIIIIIIIILIIIHILLLIJDLHPIILHLLHIIIIIIHGHHLLIiIHAZILHIAHIq&IILIHIIILIHHLHI jIIIHIIIHFIIIPIHHIIIIIHIPHLHILHHHHHIIIIIIIIIIIIIIIIII",
"IIIIIIIIIIHIILIILIHHIHHHIILHHILLIIIIIIPHIHHIInPILILILLGHI IIHIIIHILIZPIIIl IIIPLIIHHIIIIHILHIIIIILIIIHLLIHHIPHIIIIIIIIIIIIIIIIII",
"IIIIIIIIIILIIHIILIIHHLHLHILVLAHIIIIIIILHHLIHHLIHAIHIAIHI5;IIHIIILIHIMILII MLHIHIIAHIIIIILPIIHIIIIIIeZLIHIIHPLHIIIIIIIIIIIIIIIIII",
"IIIIIIIIIIIHHIIPLIHLPLAPLSLHJHHIIIIIIILLHHIHHLILHHIHILHI IIIPIILLHIIIIHIaXIIIHIIHILIIIIIHHIILLIIIIIzHHHIHILHIHIIIIIIIIIIIIIIIIII",
"IIIIIIIIIIILLIHAILLHILILHIHIIHHIIIIIIILLILHIAHIHIHZLILHI:>IHILLIIPILIIII ALIILHHIHIIIIIIHLIIIHIIIIHIIHHPHIIGLPLIIIIIIIIIIIIIIIII",
"IIIIIIIIIIIIHHILICLIILHHIAHILJHIIIILHILPHIHHHHHILHIFLLHLI VHIIIIIIHIIIIq@IHIHHPIHIIIIIIHIHIIIIHIIIZILIIAHIIIALLIIIIIIIIIIIIIIIII",
"IIIIIIIIIIIILILHHIPLLHHLLHHIIHLHIIIIHIIHLIILLHLHIHILIPMHLc IHLIIIILIIII IIIlHIIIHIIIILHIIIHIIILLILHILIIIHAIIHHHIIIIIIIIIIIIIIIII",
"IIIIIIIIIIIIILIHIHIILLHIVLHLLHIIHIIIIILHHIVhLAAHHZZHAPaILI&5IIHPLIIHII9=III9IIIHIIIIHIIIIILIIIIHIHILHIIILLFHIVHIIIIIIIIIIIIIIIII",
"IIIIIIIIIIIIIHIIHILHILLLILHIIVIILIIIIIHIIHIIIHHLILIIJIIIILI AILIIHLPII ILIIIIIIHIIIHIIIIIIIHIIIIiHIHLIIIIHLIHAIIIIIIIIIIIIIIIIII",
"IIIIIIIIIIIIIILIHLIIHIHLILLHLHIIIHIIIILIIHHLILIFIHIIHIPIIHIf IIIILIzI5>IIHIIIIHIILLIIIIIIIIILIIIsHIHIIIIIIHIIIeHIIIIIIIIIIIIIIII",
"IIIIIIIIIIIIIIHLHIIHILHIILIHIHIIIIHIIHIIIHIIHIIIHHIIILHIHIII@wIILHIAI IIIHIIILIIHIIIIIIIIIIIHIIIIIIHHIIIIIHHIIjHIIIIIIIIIIIIIIII",
"IIIIIIIIIIIIIIHHPIHPHILIILHHIHIIIILIIHIIIILIHHLIHHHIIPLILIIII ILIIII-5IIIILIIHIHIIIIIIIIIIIIIHIIIIILIHLIIIIHIIIIIIIIIIIIIIIIIIII",
"IIIIIIIIIIIIIILIIHHIIIIHIILILPIIIIIPHIIIIIHIIIIHIHIHILLHIILHItXIIIII IIIIIHILLHIIIIIIIIIIIIIIIHIIIHIIIIHIIILHILIIIIIIIIIIIIIIIII",
"IIIIIIIIIIIIIIIIILIIIIIPIHHIHLIIIIILHIIIIIHPIIIIHHLILHHLLHIIII sIII&0IIIIIIHHIIIIIIIIIIIIIIIIIHIIILIIIIIHLIIFILIIIIIIIIIIIIIIIII",
"IIIIIIIIIIIIIIIIIIIIIIIIHLIHLHIIIIIILIIIIILHLLLLLHHLLHHHIIIIIII IIA IIIIIILHLIIIIIIIIIIIIIIIIIIHIHIIIIIIIIHIIHPIIIIIIIIIIIIIIIII",
"IIIIIIIIIIIIIIIIIIIIIIIILIIILPIIIIIIIIIIIIILIIIIIIIIIIIILLHHLII8$I@iIIIIIIILIIIIIIIIIIIIIIIIIIIIHLIIIIIIIIIHLLHIIIIIIIIIIIIIIIII",
"IIIIIIIIIIIIIIIIIIIIIIIIIIIIIHIIIIIIIIIIIIIIIIIIIIIIIIIIIIIIILLI t IIIIIIIIIIIIIIIIIIIIIIIIIIIIIFLIIIIIIIIIIIHHIIIIIIIIIIIIIIIII",
"IIIIIIIIIIIIIIIIIIIIIIIIIIIIIIIIIIIIIIIIIIIIIIIIIIIIIIIIIIIIIIIIH xIIIIIIIIIIIIIIIIIIIIIIIIIIIIIIIIIIIIIIIIIIIHLIIIIIIIIIIIIIIII",
"IIIIIIIIIIIIIIIIIIIIIIIIIIIIIIIIIIIIIIIIIIIIIIIIIIIIIIIIIIIIIIIIIIIIIIIIIIIIIIIIIIIIIIIIIIIIIIIIIIIIIIIIIIIIIIIIIIIIIIIIIIIIIIII",
"IIIIIIIIIIIIIIIIIIIIIIIIIIIIIIIIIIIIIIIIIIIIIIIIIIIIIIIIIIIIIIIIIIIIIIIIIIIIIIIIIIIIIIIIIIIIIIIIIIIIIIIIIIIIIIIIIIIIIIIIIIIIIIII",
"IIIIIIIIIIIIIIIIIIIIIIIIIIIIIIIIIIIIIIIIIIIIIIIIIIIIIIIIIIIIIIIIIIIIIIIIIIIIIIIIIIIIIIIIIIIIIIIIIIIIIIIIIIIIIIIIIIIIIIIIIIIIIIII",
"IIIIIIIIIIIIIIIIIIIIIIIIIIIIIIIIIIIIIIIIIIIIIIIIIIIIIIIIIIIIIIIIIIIIIIIIIIIIIIIIIIIIIIIIIIIIIIIIIIIIIIIIIIIIIIIIIIIIIIIIIIIIIIII",
"IIIIIIIIIIIIIIIIIIIIIIIIIIIIIIIIIIIIIIIIIIIIIIIIIIIIIIIIIIIIIIIIIIIIIIIIIIIIIIIIIIIIIIIIIIIIIIIIIIIIIIIIIIIIIIIIIIIIIIIIIIIIIIII",
"IIIIIIIIIIIIIIIIIIIIIIIIIIIIIIIIIIIIIIIIIIIIIIIIIIIIIIIIIIIIIIIIIIIIIIIIIIIIIIIIIIIIIIIIIIIIIIIIIIIIIIIIIIIIIIIIIIIIIIIIIIIIIIII",
"IIIIIIIIIIIIIIIIIIIIIIIIIIIIIIIIIIIIIIIIIIIIIIIIIIIIIIIIIIIIIIIIIIIIIIIIIIIIIIIIIIIIIIIIIIIIIIIIIIIIIIIIIIIIIIIIIIIIIIIIIIIIIIII",
"IIIIIIIIIIIIIIIIIIIIIIIIIIIIIIIIIIIIIIIIIIIIIIIIIIIIIIIIIIIIIIIIIIIIIIIIIIIIIIIIIIIIIIIIIIIIIIIIIIIIIIIIIIIIIIIIIIIIIIIIIIIIIIII",
"IIIIIIIIIIIIIIIIIIIIIIIIIIIIIIIIIIIIIIIIIIIIIIIIIIIIIIIIIIIIIIIIIIIIIIIIIIIIIIIIIIIIIIIIIIIIIIIIIIIIIIIIIIIIIIIIIIIIIIIIIIIIIIII"
};
