/* XPM */
static char *_aef0ddab83f42d1d5a1675f60949b7c[] = {
/* columns rows colors chars-per-pixel */
"64 64 50 1 ",
"  c #020202",
". c #1C1C1C",
"X c #232323",
"o c #272728",
"O c #2B2B2B",
"+ c #333333",
"@ c #3C3C3C",
"# c #3F3F40",
"$ c #434343",
"% c #4D4D4D",
"& c #50504F",
"* c #4F4F50",
"= c #525252",
"- c #5A5A5A",
"; c #605F5F",
": c #616161",
"> c #6C6C6C",
", c #70706F",
"< c #747474",
"1 c #7D7D7D",
"2 c #7F7F80",
"3 c #828282",
"4 c #8C8D8C",
"5 c #949394",
"6 c #979798",
"7 c #9C9C9C",
"8 c #A5A5A5",
"9 c #ADADAC",
"0 c #B0B0AF",
"q c #B4B4B4",
"w c #BCBCBC",
"e c #C4C4C4",
"r c #C8C8C6",
"t c #CDCDCD",
"y c #D0D0CF",
"u c #D4D4D3",
"i c #D8D7D7",
"p c #DCDCDC",
"a c #DFDFE0",
"s c #E3E3E3",
"d c #E8E8E7",
"f c #E7E7E8",
"g c #EDEDEC",
"h c #F0EFEE",
"j c #EFF0EF",
"k c #F0F0EF",
"l c #F5F5F4",
"z c #F8F8F7",
"x c #F7F7F8",
"c c #FEFEFE",
/* pixels */
"cccccccccccccccccccccccccccccccccccccccccccccccccccccccccccccccc",
"cccccccccccccccccccccccccccccccccccccccccccccccccccccccccccccccc",
"cccccccccccccccccccccccccccccccccccccccccccccccccccccccccccccccc",
"cccccccccccccccccccccccccccccccccccccccccccccccccccccccccccccccc",
"cccccccccccccccckccccccccccccccccccccccccccccccccccccccccccccccc",
"ccc >---------------------------;X0cccc%-------------------: ccc",
"ccc<ccccccccccccccccccccccccccccc=ccccc-cccccccccccccccccccc=ccc",
"cccc@cccccccccccccccccccccccccccl,cccc@cccccccccccccccccccc4yccc",
"cccc<dckfccccccclcccclcccccjcllc$ccccc-cccccccccccccccccccc+cccc",
"ccccc@cccccccccckcccccpkcjccuczc$ckcc$ccccccccccccccccccccr5cccc",
"ccccc1accccxcccckcclcccclccclcc>kccxc=ccccclcccccccccccccc$ccccc",
"cc0clc@cjccccyclcccclcjjhcczzzc$cccc#clczccccccccccccccccl,ccccc",
"cccjcc4ykccccccccccccccccccccc4yckcc%cllcxxcccccccccccccc$cccccc",
"ccclljc@ckcccccO=%%===%&=%%=&%%cccc@cczllcc8%%=%%==%=%%%%3cccccc",
"ccccccc5ycckccc%cccccccckcccccckccc%clccklc$cccccccccccccccccccc",
"cckckcxc@cccckcu4cccllkczzicgccllc#cjcllzc3pzlcccccccccccccccccc",
"ccclllcc4wclclcl@cxjclcalclzlacpcc%cclkzkc$cckcccccccccccccccccc",
"ccccccwcc.cccclcr5cslptcllcklcdcc$ccclccc3pclc<-::::,<rccccccccc",
"cccclcjcc80clucxc+cjkpclkullyxfkc$ccjlclc@ccx06ccccccc+ccccccccc",
"cccccccgzcocccckcw7llcgccchzwcpc$cldlclc3sclcOccccccc,fccccccccc",
"ccccclczjc98cjcllc+cpczulkljtczc@ccclclc@ccc8qcklczlc@cccccccccc",
"cccccckcclcOccyzlcq6cdckckjllkc$cclcclc3sccc+ccccycc-zcccccccccc",
"cccccccccccw7cccclcockklklcdkgc$cjjcdcc$clc4ycpccckc#ccccccccccc",
"ccccccckfycc+cckklc98ckkxxlklk%cckcycc3pllc@czkxccc$plcccccccccc",
"cccccccccccwt5clgzlcOclzyclcpc$cscccjc@ccd1scccclcc=ckcccccccccc",
"ccccckclzdlcc+cclkcp99cjcgjlc=ckzclcc1pccc@ccccdcf$clccccccccccc",
"cccccclcxcjccy4pclklcOclksccc@cccsclc@cep-ljkjlcck,ccclccccccccc",
"ccccccclclljcc@cklkkc8qcl9fc-ccclczc2sckc#cclcckc@cldccccccccccc",
"cccccccccklcdls2cjclccOcdccc@cyccccc@clc$clccllcp3ccjclccccccccc",
"ccccccccclc0lhc#cklklc6wzcc-ckclscc3axkc$cclcccc@cecckxccccccccc",
"cccclccccclclllp1cclccc+clc$cckccjc$ckc@ckfckcce5ccklclccccccccc",
"ccclccccczzckcjc@clldcc6ec-cccllcc3pccl>ckclckc+cclclxzccccccccc",
"ccclccccczclckcxg,cxcklc+c$ccklccc@ckc@clclccd98cclccceccccccccc",
"cccclcccccclllllc$llccuc7Xcckllzc<sccs1cclkcccOccqckckgccccccccc",
"ccclccclclclllllll>cckclc5czcllcc#czc@ccccccc6eccclcckcccccccccc",
"cccklccccccclckcwc@clclllclcclcc3pcxu4clckccc@ccczccckkccccccccc",
"cccclclcccccccljccc-dclcclzcxzcc$cccOclzxcla3pccllckclkccccccccc",
"ccclccccdclclcczljc@cllczcccczc3skl98clcccxc@cccclccwclccccccccc",
"clccccccccccckccllzc$ccllclcczc#clc+czflccc,gclccckcczkccccccccc",
"ccclcclcccczzcxlcqcc$clcllcfcc3acl80ccfcclc@cxlcwcccccyccccccccc",
"ccccccccccxccccclcccc@cfcllclc@kjcXccclccc*lcccckcccccjccccccccc",
"ccczcccckcclclllcdlcc&ckclfcc2apc4ycsccccc@cclccccclkclccccccccc",
"ccclccclckccclccclkccc$ckcccc@clc@ccccklc@clcccellcccklccccccccc",
"ccccccccccllclclikcudc%ckzcc:dic1aclccccc-ccwcccfccccckccccccccc",
"ccckccccccxckcccclllccc@clcc$clc@cslcxcc@cclccccklcccllccccccccc",
"cccccxcclcccckkkzzpcyxl,jcc3scc$lldckccd<ckclclczcwccclccccccccc",
"ccclccccckkckkchccdcckxc+cc$clc$ckjcccc@ccccllcklxceccuccccccccc",
"clcxxzlclccdcckkzlcycllc<l4tcc$clclkclp3ckclclccjclcccsccccccccc",
"cccczccccjlzlkkkcczcjlclc%%clc$clclccc@cccccpccccklccclccccccccc",
"cccczcccgcckcccjcckcjlhzx6scc@clxxzkcw6ckccciclcckhcxckccccccccc",
"cccccccklclllclkcccklcizkcchk:clcccxcocccckcckccccklkckccccccccc",
"ccccclccclllcjkcccckzcjccclc@ccclcdc89clckcczccccplcclxccccccccc",
"ccccccckclcllllccccclcjclkcc@ccclccc+ccclccckclccdkxclxccccccccc",
"cccccclcklcklcxlcczzczlclccl90ccclc4yjkcxcczccclclcchcjccccccccc",
"cccccccccczclzkclcclcilkllcacOczccc@cuclccccclccpccccljccccccccc",
"ccccccczkcclcxzccccczclclczccc+cll3pcccclcccccccpcxcckcqcccccccc",
"ccccccclckcccllcccxccczclcczcc6ecc+ccclccccccczcclcccczccccccccc",
"cccccccccccclclcccccckccllllcccOc:lcclxccccccccccccclczccccccccc",
"cccccccccccccclcccccccccccccclck%%cccccccccccccckccccclzcccccccc",
"cccccccccccccccccccccccccccccccc9ccccccccccccccccccccccccccccccc",
"cccccccccccccccccccccccccccccccccccccccccccccccccccccccccccccccc",
"cccccccccccccccccccccccccccccccccccccccccccccccccccccccccccccccc",
"cccccccccccccccccccccccccccccccccccccccccccccccccccccccccccccccc",
"cccccccccccccccccccccccccccccccccccccccccccccccccccccccccccccccc"
};
