/* XPM */
static char *aa504d910624470aa5b06e91b05b7bff[] = {
/* columns rows colors chars-per-pixel */
"16 16 39 1 ",
"  c #A7A7A8",
". c #AAAAA9",
"X c #AEAEAF",
"o c gray69",
"O c gray70",
"+ c #B6B6B6",
"@ c #B7B7B7",
"# c #B9B9BA",
"$ c #BCBCBC",
"% c gray",
"& c #BEBEBF",
"* c gray77",
"= c gray78",
"- c #C9C9C8",
"; c gray80",
": c #CFCFCE",
"> c #D2D2D1",
", c gray83",
"< c gray84",
"1 c #DBDBDA",
"2 c gray86",
"3 c gainsboro",
"4 c gray87",
"5 c gray89",
"6 c #E6E6E5",
"7 c gray92",
"8 c #ECECEC",
"9 c #EEEEED",
"0 c #EFEFEF",
"q c gray95",
"w c #F2F2F3",
"e c #F4F4F3",
"r c #F4F4F4",
"t c gray97",
"y c #F9F9F8",
"u c #FAFAF8",
"i c #FCFCFB",
"p c #FBFBFC",
"a c gray100",
/* pixels */
"aaaaaaaaaaaaaaaa",
"4O%%%%%*+>%%%%%>",
"a#aaaaa46@aaaaOa",
"a>r<#%#*:y4#*%;a",
"aa.a#yayOa%*=*aa",
"aa>5+ar*e<<<y%aa",
"ayaOaOiOa%OaOaaa",
"aar16#<q<:49>aaa",
"yayaXa a%#aOawaa",
"yipa>1a<;551q9aa",
"aayaa.a+%a.aayaa",
"ypyqr5O%844a7raa",
"aarear4%aXaeraaa",
"ayryiqa+19iar9aa",
"aaayaay4.aaiayaa",
"aaaaaaaaaaaaaaaa"
};
